<mxfile host="app.diagrams.net" modified="2023-03-29T14:32:11.940Z" agent="Mozilla/5.0 (Macintosh; Intel Mac OS X 10_15_7) AppleWebKit/537.36 (KHTML, like Gecko) Chrome/111.0.0.0 Safari/537.36" etag="Y8Xs-QQmLLiRI-OUvd9N" version="21.1.1" type="github">
  <diagram name="第 1 页" id="3SrUdyHuKuVYodozyb05">
    <mxGraphModel dx="1853" dy="661" grid="1" gridSize="10" guides="1" tooltips="1" connect="1" arrows="1" fold="1" page="1" pageScale="1" pageWidth="827" pageHeight="1169" math="0" shadow="0">
      <root>
        <mxCell id="0" />
        <mxCell id="1" parent="0" />
        <mxCell id="ug-U7NYewmJv76mnLZCj-4" value="请求数据" style="edgeStyle=orthogonalEdgeStyle;rounded=0;orthogonalLoop=1;jettySize=auto;html=1;exitX=1;exitY=0.25;exitDx=0;exitDy=0;entryX=0;entryY=0.25;entryDx=0;entryDy=0;" edge="1" parent="1" source="ug-U7NYewmJv76mnLZCj-1" target="ug-U7NYewmJv76mnLZCj-3">
          <mxGeometry relative="1" as="geometry" />
        </mxCell>
        <mxCell id="ug-U7NYewmJv76mnLZCj-13" value="" style="edgeStyle=orthogonalEdgeStyle;rounded=0;orthogonalLoop=1;jettySize=auto;html=1;" edge="1" parent="1" source="ug-U7NYewmJv76mnLZCj-1" target="ug-U7NYewmJv76mnLZCj-12">
          <mxGeometry relative="1" as="geometry" />
        </mxCell>
        <mxCell id="ug-U7NYewmJv76mnLZCj-14" value="处理数据" style="edgeLabel;html=1;align=center;verticalAlign=middle;resizable=0;points=[];" vertex="1" connectable="0" parent="ug-U7NYewmJv76mnLZCj-13">
          <mxGeometry x="-0.2" y="-1" relative="1" as="geometry">
            <mxPoint as="offset" />
          </mxGeometry>
        </mxCell>
        <mxCell id="ug-U7NYewmJv76mnLZCj-1" value="前端" style="rounded=0;whiteSpace=wrap;html=1;" vertex="1" parent="1">
          <mxGeometry x="100" y="140" width="120" height="60" as="geometry" />
        </mxCell>
        <mxCell id="ug-U7NYewmJv76mnLZCj-5" value="返回" style="edgeStyle=orthogonalEdgeStyle;rounded=0;orthogonalLoop=1;jettySize=auto;html=1;exitX=0;exitY=0.75;exitDx=0;exitDy=0;entryX=1;entryY=0.75;entryDx=0;entryDy=0;" edge="1" parent="1" source="ug-U7NYewmJv76mnLZCj-3" target="ug-U7NYewmJv76mnLZCj-1">
          <mxGeometry relative="1" as="geometry" />
        </mxCell>
        <mxCell id="ug-U7NYewmJv76mnLZCj-7" value="调用" style="edgeStyle=orthogonalEdgeStyle;rounded=0;orthogonalLoop=1;jettySize=auto;html=1;" edge="1" parent="1" source="ug-U7NYewmJv76mnLZCj-3" target="ug-U7NYewmJv76mnLZCj-6">
          <mxGeometry relative="1" as="geometry" />
        </mxCell>
        <mxCell id="ug-U7NYewmJv76mnLZCj-3" value="后端" style="rounded=0;whiteSpace=wrap;html=1;" vertex="1" parent="1">
          <mxGeometry x="300" y="140" width="120" height="60" as="geometry" />
        </mxCell>
        <mxCell id="ug-U7NYewmJv76mnLZCj-9" value="匹配" style="edgeStyle=orthogonalEdgeStyle;rounded=0;orthogonalLoop=1;jettySize=auto;html=1;" edge="1" parent="1" source="ug-U7NYewmJv76mnLZCj-6" target="ug-U7NYewmJv76mnLZCj-8">
          <mxGeometry relative="1" as="geometry" />
        </mxCell>
        <mxCell id="ug-U7NYewmJv76mnLZCj-6" value="Controller" style="whiteSpace=wrap;html=1;rounded=0;" vertex="1" parent="1">
          <mxGeometry x="300" y="280" width="120" height="60" as="geometry" />
        </mxCell>
        <mxCell id="ug-U7NYewmJv76mnLZCj-11" value="" style="edgeStyle=orthogonalEdgeStyle;rounded=0;orthogonalLoop=1;jettySize=auto;html=1;" edge="1" parent="1" source="ug-U7NYewmJv76mnLZCj-8" target="ug-U7NYewmJv76mnLZCj-10">
          <mxGeometry relative="1" as="geometry" />
        </mxCell>
        <mxCell id="ug-U7NYewmJv76mnLZCj-18" value="修改" style="edgeLabel;html=1;align=center;verticalAlign=middle;resizable=0;points=[];" vertex="1" connectable="0" parent="ug-U7NYewmJv76mnLZCj-11">
          <mxGeometry relative="1" as="geometry">
            <mxPoint as="offset" />
          </mxGeometry>
        </mxCell>
        <mxCell id="ug-U7NYewmJv76mnLZCj-8" value="Servicer" style="whiteSpace=wrap;html=1;rounded=0;" vertex="1" parent="1">
          <mxGeometry x="500" y="280" width="120" height="60" as="geometry" />
        </mxCell>
        <mxCell id="ug-U7NYewmJv76mnLZCj-10" value="DB" style="whiteSpace=wrap;html=1;rounded=0;" vertex="1" parent="1">
          <mxGeometry x="500" y="140" width="120" height="60" as="geometry" />
        </mxCell>
        <mxCell id="ug-U7NYewmJv76mnLZCj-16" value="" style="edgeStyle=orthogonalEdgeStyle;rounded=0;orthogonalLoop=1;jettySize=auto;html=1;" edge="1" parent="1" source="ug-U7NYewmJv76mnLZCj-12" target="ug-U7NYewmJv76mnLZCj-15">
          <mxGeometry relative="1" as="geometry" />
        </mxCell>
        <mxCell id="ug-U7NYewmJv76mnLZCj-17" value="更新" style="edgeLabel;html=1;align=center;verticalAlign=middle;resizable=0;points=[];" vertex="1" connectable="0" parent="ug-U7NYewmJv76mnLZCj-16">
          <mxGeometry x="0.05" y="3" relative="1" as="geometry">
            <mxPoint as="offset" />
          </mxGeometry>
        </mxCell>
        <mxCell id="ug-U7NYewmJv76mnLZCj-12" value="Renderer" style="whiteSpace=wrap;html=1;rounded=0;" vertex="1" parent="1">
          <mxGeometry x="100" y="280" width="120" height="60" as="geometry" />
        </mxCell>
        <mxCell id="ug-U7NYewmJv76mnLZCj-15" value="View Model" style="whiteSpace=wrap;html=1;rounded=0;" vertex="1" parent="1">
          <mxGeometry x="-100" y="280" width="120" height="60" as="geometry" />
        </mxCell>
      </root>
    </mxGraphModel>
  </diagram>
</mxfile>
